<mxfile host="app.diagrams.net" modified="2024-01-22T06:12:40.704Z" agent="Mozilla/5.0 (X11; Linux x86_64) AppleWebKit/537.36 (KHTML, like Gecko) Chrome/120.0.0.0 Safari/537.36" version="22.1.21" etag="kSW8jHXhv717qOqbe-g4" type="github">
  <diagram name="Page-1" id="v2-Q4NSVbRei0Koi88kN">
    <mxGraphModel>
      <root>
        <mxCell id="0" />
        <mxCell id="1" parent="0" />
      </root>
    </mxGraphModel>
  </diagram>
</mxfile>
